<?xml version="1.0" encoding="UTF-8" standalone="no"?>
<!-- Created with Inkscape (http://www.inkscape.org/) -->

<svg
   width="368.13687mm"
   height="308.38412mm"
   viewBox="0 0 368.13687 308.38412"
   version="1.1"
   id="svg45493"
   xml:space="preserve"
   inkscape:version="1.2.1 (9c6d41e410, 2022-07-14)"
   sodipodi:docname="obrazek1.svg"
   xmlns:inkscape="http://www.inkscape.org/namespaces/inkscape"
   xmlns:sodipodi="http://sodipodi.sourceforge.net/DTD/sodipodi-0.dtd"
   xmlns:xlink="http://www.w3.org/1999/xlink"
   xmlns="http://www.w3.org/2000/svg"
   xmlns:svg="http://www.w3.org/2000/svg"><sodipodi:namedview
     id="namedview45495"
     pagecolor="#505050"
     bordercolor="#eeeeee"
     borderopacity="1"
     inkscape:showpageshadow="0"
     inkscape:pageopacity="0"
     inkscape:pagecheckerboard="0"
     inkscape:deskcolor="#505050"
     inkscape:document-units="mm"
     showgrid="false"
     inkscape:zoom="0.32346812"
     inkscape:cx="785.23967"
     inkscape:cy="610.57022"
     inkscape:window-width="1278"
     inkscape:window-height="1368"
     inkscape:window-x="-7"
     inkscape:window-y="0"
     inkscape:window-maximized="0"
     inkscape:current-layer="svg45493" /><defs
     id="defs45490"><linearGradient
       inkscape:collect="always"
       id="linearGradient68852"><stop
         style="stop-color:#408b20;stop-opacity:1;"
         offset="0.14583334"
         id="stop68848" /><stop
         style="stop-color:#7bff61;stop-opacity:1;"
         offset="1"
         id="stop68850" /></linearGradient><linearGradient
       inkscape:collect="always"
       id="linearGradient64486"><stop
         style="stop-color:#bef200;stop-opacity:1;"
         offset="0"
         id="stop64482" /><stop
         style="stop-color:#600000;stop-opacity:1;"
         offset="0.58658093"
         id="stop64490" /><stop
         style="stop-color:#e5003d;stop-opacity:1;"
         offset="1"
         id="stop64484" /></linearGradient><linearGradient
       inkscape:collect="always"
       id="linearGradient60161"><stop
         style="stop-color:#329900;stop-opacity:1;"
         offset="0"
         id="stop60157" /><stop
         style="stop-color:#ffffff;stop-opacity:1;"
         offset="1"
         id="stop60159" /></linearGradient><linearGradient
       id="linearGradient53404"
       inkscape:collect="always"><stop
         style="stop-color:#329900;stop-opacity:1;"
         offset="0.24107143"
         id="stop53400" /><stop
         style="stop-color:#5e0000;stop-opacity:1;"
         offset="0.61209315"
         id="stop53408" /><stop
         style="stop-color:#65004c;stop-opacity:1;"
         offset="1"
         id="stop53406" /></linearGradient><linearGradient
       inkscape:collect="always"
       id="linearGradient47315"><stop
         style="stop-color:#b90004;stop-opacity:1;"
         offset="0.2"
         id="stop47311" /><stop
         style="stop-color:#ff3000;stop-opacity:1;"
         offset="0.40000001"
         id="stop51216" /><stop
         style="stop-color:#ff6200;stop-opacity:1;"
         offset="0.60000002"
         id="stop51218" /><stop
         style="stop-color:#ff8e00;stop-opacity:1;"
         offset="0.80000001"
         id="stop51220" /><stop
         style="stop-color:#ffeb00;stop-opacity:1;"
         offset="1"
         id="stop47313" /></linearGradient><linearGradient
       id="linearGradient47297"
       inkscape:collect="always"><stop
         style="stop-color:#329900;stop-opacity:1;"
         offset="0.19047619"
         id="stop47293" /><stop
         style="stop-color:#5e0003;stop-opacity:1;"
         offset="0.65476191"
         id="stop53410" /><stop
         style="stop-color:#65004a;stop-opacity:1;"
         offset="0.9910714"
         id="stop47295" /></linearGradient><linearGradient
       inkscape:collect="always"
       xlink:href="#linearGradient47297"
       id="linearGradient47299"
       x1="397.4964"
       y1="119.93212"
       x2="474.22366"
       y2="403.34009"
       gradientUnits="userSpaceOnUse"
       gradientTransform="translate(-107.82194,-122.57296)" /><linearGradient
       inkscape:collect="always"
       xlink:href="#linearGradient53404"
       id="linearGradient47301"
       x1="243.60368"
       y1="168.04245"
       x2="372.53189"
       y2="351.96844"
       gradientUnits="userSpaceOnUse"
       gradientTransform="translate(-107.82194,-122.57296)" /><linearGradient
       inkscape:collect="always"
       xlink:href="#linearGradient47315"
       id="linearGradient47319"
       x1="110.13548"
       y1="263.38501"
       x2="287.30283"
       y2="254.70927"
       gradientUnits="userSpaceOnUse"
       spreadMethod="pad"
       gradientTransform="translate(-107.82194,-122.57296)" /><linearGradient
       inkscape:collect="always"
       xlink:href="#linearGradient60161"
       id="linearGradient60163"
       x1="252.4109"
       y1="168.47127"
       x2="356.44485"
       y2="130.29794"
       gradientUnits="userSpaceOnUse" /><linearGradient
       inkscape:collect="always"
       xlink:href="#linearGradient64486"
       id="linearGradient64488"
       x1="281.90933"
       y1="322.90573"
       x2="288.27509"
       y2="432.22025"
       gradientUnits="userSpaceOnUse" /><linearGradient
       inkscape:collect="always"
       xlink:href="#linearGradient68852"
       id="linearGradient68854"
       x1="231.63741"
       y1="351.46106"
       x2="249.66656"
       y2="415.08325"
       gradientUnits="userSpaceOnUse" /></defs><ellipse
     style="fill:#ffffff;fill-opacity:1;stroke:#000000;stroke-width:3.02927"
     id="path45902-0"
     cx="56.439018"
     cy="85.066765"
     rx="24.378973"
     ry="23.222204" /><path
     style="mix-blend-mode:normal;fill:url(#linearGradient47319);fill-opacity:1;fill-rule:evenodd;stroke:#000000;stroke-width:3.203;stroke-dasharray:none"
     d="m 105.60162,46.893449 c 0,0 -86.757548,25.44887 -99.4819784,78.081791 0,1.73515 -37.5949406,80.39532 104.1090484,99.48197 -0.57838,0.5784 160.79066,-86.17915 -4.62707,-177.563761 z"
     id="path45876" /><path
     style="mix-blend-mode:lighten;fill:url(#linearGradient47301);fill-opacity:1;fill-rule:evenodd;stroke:#000000;stroke-width:3.203;stroke-dasharray:none"
     d="m 110.80707,225.03561 c 0,0 58.99513,20.82181 115.67674,-19.66505 1.73513,-1.15675 38.75169,-41.64361 60.73029,-46.84908 -3.47033,1.15679 51.47614,-13.8812 -1.73517,-38.17331 1.15676,0 -41.06524,-18.50828 -54.94644,-46.849081 0.57838,1.73515 -19.66505,-42.80039 -124.93087,-26.60564 -1.73515,1.15676 72.29797,38.7517 74.61148,87.914311 1.15679,-0.57839 -1.73513,57.25998 -69.40603,90.22785 z"
     id="path45878" /><path
     style="mix-blend-mode:lighten;fill:url(#linearGradient47299);fill-opacity:1;fill-rule:evenodd;stroke:#000000;stroke-width:3.203;stroke-dasharray:none"
     d="m 291.84115,159.09986 c 0,0 18.50827,-5.78382 2.31355,61.88705 0,-0.57838 -2.31355,48.00584 70.56278,57.83836 -0.57837,0.57841 -27.76241,-20.82181 -24.29211,-50.31936 -0.57837,0.57838 -21.40018,-85.02239 -15.61634,-89.07108 0,1.73515 6.3622,-123.774101 39.90845,-137.0769308 0,2.31354 -75.18987,12.7244498 -71.71957,65.9357398 0,-2.89192 17.92989,46.849071 2.31355,57.838361 1.15675,0 33.54625,14.45959 -3.47031,32.96786 z"
     id="path45888" /><g
     inkscape:label="Warstwa 1"
     inkscape:groupmode="layer"
     id="layer1"
     transform="translate(-107.82194,-122.57296)"><path
       style="fill:url(#linearGradient68854);fill-opacity:1;stroke:#000000;stroke-width:3.20299"
       d="m 234.82376,352.81401 c 0,0 -13.88121,31.23272 20.82181,47.42746 -0.57839,-1.73513 -14.4596,-23.71373 -1.15677,-48.00584 z"
       id="path45880" /><path
       style="fill:url(#linearGradient64488);fill-opacity:1;stroke:#000000;stroke-width:3.20299"
       d="m 255.64557,351.65725 c 0,0 -12.72444,26.60566 -1.73516,46.27068 1.73516,2.31354 27.76241,34.12464 46.2707,31.23271 -0.57838,0 44.53554,-19.08664 -6.9406,-80.39531 0.57838,0.57838 -9.83253,-3.4703 -7.51898,-23.13535 0.57838,1.15679 -19.08667,-13.88121 -20.24343,13.88121 1.15676,-1.73514 -8.09738,-2.31352 -9.83253,12.14606 z"
       id="path45882" /><path
       style="fill:url(#linearGradient60163);fill-opacity:1;stroke:#000000;stroke-width:3.20299"
       d="m 235.98052,165.9961 c 0,0 37.01656,-26.02726 94.85493,-30.07595 -0.57838,0 -30.65434,24.8705 -13.30283,43.37878 -1.73516,-1.15677 -41.64362,-18.50828 -81.5521,-13.30283 z"
       id="path45884" /><path
       style="fill:none;stroke:#000000;stroke-width:3.20299"
       d="m 204.74781,229.6183 c 0,0 41.64362,81.5521 -95.4333,49.16262"
       id="path45890" /><path
       style="fill:none;stroke:#000000;stroke-width:3.20299"
       d="m 194.3369,231.93184 c 11.40616,0.16675 11.08056,-4.35921 15.61636,-6.94061"
       id="path45892"
       sodipodi:nodetypes="cc" /><path
       style="fill:none;stroke:#000000;stroke-width:3.20299"
       d="m 259.11587,165.9961 c 0,0 -5.20546,-8.67575 2.89192,-13.8812"
       id="path45894" /><path
       style="fill:none;stroke:#000000;stroke-width:3.20299"
       d="m 278.20252,168.30964 c 0,0 -6.36222,-14.45959 14.45961,-26.02727"
       id="path45898" /><path
       style="fill:none;stroke:#000000;stroke-width:3.20299"
       d="m 295.55403,171.77994 c 0,0 -15.03797,-11.56767 32.96787,-37.59494"
       id="path45900" /><ellipse
       style="fill:#fffdff;fill-opacity:1;stroke:#000000;stroke-width:3.02927"
       id="path45902"
       cx="173.51509"
       cy="204.7478"
       rx="24.378973"
       ry="23.222204" /><ellipse
       style="fill:#000000;fill-opacity:1;stroke:#000000;stroke-width:3.20299"
       id="path45904"
       cx="165.39363"
       cy="210.44092"
       rx="6.9406037"
       ry="6.0730286" /></g></svg>
