<?xml version="1.0" encoding="UTF-8" standalone="no"?>
<!-- Created with Inkscape (http://www.inkscape.org/) -->

<svg
   width="190.20062mm"
   height="131.43307mm"
   viewBox="0 0 190.20062 131.43307"
   version="1.1"
   id="svg5"
   xml:space="preserve"
   inkscape:export-filename="ślimak.svg"
   inkscape:export-xdpi="96"
   inkscape:export-ydpi="96"
   inkscape:version="1.2.1 (9c6d41e410, 2022-07-14)"
   sodipodi:docname="ślimak projekt.svg"
   xmlns:inkscape="http://www.inkscape.org/namespaces/inkscape"
   xmlns:sodipodi="http://sodipodi.sourceforge.net/DTD/sodipodi-0.dtd"
   xmlns="http://www.w3.org/2000/svg"
   xmlns:svg="http://www.w3.org/2000/svg"><sodipodi:namedview
     id="namedview7"
     pagecolor="#ffffff"
     bordercolor="#000000"
     borderopacity="0.25"
     inkscape:showpageshadow="2"
     inkscape:pageopacity="0.0"
     inkscape:pagecheckerboard="0"
     inkscape:deskcolor="#d1d1d1"
     inkscape:document-units="mm"
     showgrid="false"
     inkscape:zoom="1.4912879"
     inkscape:cx="305.77597"
     inkscape:cy="704.08941"
     inkscape:window-width="1920"
     inkscape:window-height="1017"
     inkscape:window-x="-8"
     inkscape:window-y="-8"
     inkscape:window-maximized="1"
     inkscape:current-layer="layer2" /><defs
     id="defs2" /><g
     inkscape:groupmode="layer"
     id="layer2"
     inkscape:label="Warstwa 2"
     transform="translate(-9.3071387,-72.280378)"><path
       sodipodi:type="spiral"
       style="fill:none;fill-rule:evenodd;stroke:#000000;stroke-width:0.264583"
       id="path306"
       sodipodi:cx="143.70967"
       sodipodi:cy="216.45161"
       sodipodi:expansion="1"
       sodipodi:revolution="3.0455267"
       sodipodi:radius="31.890112"
       sodipodi:argument="-18.389561"
       sodipodi:t0="0"
       d="m 143.70967,216.45161 c 1.4113,0.69922 -0.24625,2.24738 -1.16215,2.34568 -2.48203,0.26639 -3.85112,-2.56599 -3.5292,-4.66997 0.57583,-3.76354 4.75207,-5.59072 8.1778,-4.71274 5.02739,1.28848 7.36837,6.96293 5.89626,11.68563 -1.96209,6.29462 -9.18194,9.16143 -15.19345,7.07979 -7.56488,-2.61953 -10.96229,-11.40468 -8.26332,-18.70128 3.26882,-8.83716 13.62949,-12.76764 22.2091,-9.44684 10.11078,3.91345 14.57581,15.85558 10.63037,25.71692 -4.55516,11.38531 -18.08254,16.38585 -29.22475,11.8139 -12.66048,-5.19494 -18.1972,-20.3101 -12.99742,-32.73257 5.83336,-13.93614 22.5381,-20.00952 36.2404,-14.18096 15.21214,6.47081 21.82254,24.76644 15.36448,39.74823 -1.1966,2.77594 -2.79579,5.37556 -4.72876,7.69937"
       transform="matrix(2.0302253,0,0,2.0302253,-172.75962,-310.0367)" /><path
       style="fill:#ffffff;stroke:#000000;stroke-width:0.537163"
       d="m 173.75399,171.91258 c 0,0 101.21655,42.50376 -99.775743,28.8161 0,0 -57.992407,-23.41306 -63.755626,-52.94957 -5.7632212,-29.53651 28.8161,-25.2141 28.8161,-25.2141 0,0 29.896706,-3.2418 28.455896,26.29471 -1.4408,29.53648 55.110803,25.57428 55.110803,25.57428"
       id="path362" /><path
       style="fill:none;stroke:#000000;stroke-width:0.537163px;stroke-linecap:butt;stroke-linejoin:miter;stroke-opacity:1"
       d="m 113.60039,175.87481 52.58936,-2.16122"
       id="path2493" /><path
       style="fill:#a05a2c;stroke:#000000;stroke-width:0.360201"
       d="m 110.07841,174.96624 c -17.611913,-2.01063 -32.974183,-14.62968 -39.271963,-32.25922 -2.00757,-5.61983 -2.59143,-9.46806 -2.59143,-17.08029 0,-9.60292 1.07321,-14.41464 5.02124,-22.51258 7.23767,-14.845467 21.1361,-25.265687 38.743223,-29.047367 5.0484,-1.08432 15.72295,-1.18776 20.71158,-0.20079 11.33422,2.24257 21.01301,7.19754 28.91408,14.80232 5.96783,5.74403 9.63212,10.80067 13.07836,18.047807 8.03066,16.88771 7.95388,36.57836 -0.20803,53.35671 -2.04757,4.20915 -6.30135,10.87036 -7.88574,12.34864 l -0.93151,0.86912 -19.54411,0.81301 c -10.74927,0.44715 -19.59273,0.76438 -19.65215,0.70497 -0.0595,-0.0595 0.50737,-0.22166 1.25953,-0.3605 0.75216,-0.13887 2.98845,-0.88616 4.96957,-1.66063 14.10531,-5.51421 24.01106,-17.19507 27.00863,-31.84859 0.77435,-3.78535 0.77727,-11.59595 0.006,-15.60528 -4.19085,-21.78126 -24.01669,-35.655897 -44.66438,-31.257227 -13.63263,2.9042 -23.919973,13.016787 -26.364583,25.916717 -0.74398,3.92587 -0.46651,10.55837 0.59597,14.24587 2.89488,10.04718 10.64608,17.82133 20.005393,20.06469 3.29046,0.7887 8.95637,0.7887 12.24684,0 11.06893,-2.65314 18.53125,-12.32261 17.71169,-22.95037 -0.99025,-12.84134 -12.92491,-20.67263 -23.54028,-15.44669 -4.17426,2.05497 -6.59836,5.76521 -6.59836,10.09919 0,4.89147 2.97597,8.62885 6.8675,8.62462 3.37533,-0.004 6.06522,-4.07074 3.57409,-5.40395 -0.84396,-0.45168 -0.95343,-0.008 -0.26854,1.08901 0.55891,0.89493 0.14212,1.64999 -1.54416,2.79818 -2.96646,2.01977 -7.09875,-1.22508 -7.76677,-6.09879 -0.78618,-5.73582 4.72852,-11.31662 11.61958,-11.75885 9.93353,-0.63751 18.01253,9.11032 16.66828,20.11131 -1.54444,12.63905 -15.38674,21.33698 -28.64211,17.99751 -9.56894,-2.41075 -16.923713,-9.97336 -19.650393,-20.20568 -1.13516,-4.2599 -1.13232,-10.45513 0.007,-14.73071 2.38378,-8.9476 8.53795,-16.32187 17.154663,-20.555677 5.77101,-2.83558 8.21116,-3.35937 15.66876,-3.36346 5.86083,-0.004 6.52963,0.0662 9.52314,0.98692 15.62682,4.806857 26.28132,18.851777 27.10771,35.733807 1.14051,23.2995 -17.74572,42.84874 -42.39408,43.88235 -2.27827,0.0956 -5.40302,0.0298 -6.94388,-0.14618 z"
       id="path2633" /><path
       style="fill:#cccccc;stroke:#000000;stroke-width:0.360201"
       d="m 120.62431,202.67783 c -10.19473,-0.30912 -27.948443,-1.18497 -39.261943,-1.93692 l -7.38412,-0.49078 -3.78212,-1.68735 C 49.44727,189.30592 30.145138,176.47387 20.646992,165.62254 c -6.9072,-7.89126 -9.986599,-14.46028 -10.487268,-22.37159 -0.7151052,-11.29968 5.514776,-18.07219 18.404713,-20.00779 4.073415,-0.61168 15.6178,-0.46331 19.469614,0.25022 7.694468,1.42537 13.613578,5.57227 16.564436,11.60495 1.68753,3.44999 2.35447,6.90992 2.36208,12.25407 0.01,6.96534 1.04511,10.47352 4.30885,14.60245 6.28953,7.95685 23.06941,13.00785 43.231473,13.01333 3.64532,0.001 39.5079,-1.35351 58.5327,-2.21074 1.15794,-0.0522 2.5321,0.48842 6.99945,2.7536 11.86,6.01363 18.71539,11.8768 18.74569,16.03251 0.009,1.20484 -1.09638,2.9495 -2.59004,4.08877 -7.66918,5.84957 -34.00983,8.30553 -75.56438,7.04551 z"
       id="path3637" /><path
       style="fill:#000000;stroke:#000000;stroke-width:0.537163"
       d="m 18.147049,102.39375 c -0.3602,0.60033 -0.804822,1.15749 -1.080607,1.80101 -0.189177,0.44143 0.116494,0.97487 0,1.44079 -0.156998,0.62805 -0.563394,1.17298 -0.720401,1.80101 -0.116495,0.46594 0.151881,0.98519 0,1.44081 -0.05372,0.161 -0.306506,0.19917 -0.360201,0.3602 -0.255808,0.76743 -0.168712,5.80874 0,6.48361 0.185096,0.7404 0.413246,1.54689 0.720401,2.16122 0.161098,0.32217 -0.08736,0.73116 0,1.0806 0.606554,2.42622 0.0057,0.006 0.720407,0.72041 0.503011,0.50301 0.551145,1.65343 0.720401,2.16119 0.112637,0.33793 2.468965,3.0355 2.881609,3.24183 1.060001,0.52999 -0.474235,-0.83445 0.720401,0.3602"
       id="path9147" /><path
       style="fill:#000000;stroke:#000000;stroke-width:0.537163"
       d="m 47.32335,103.47435 c -0.202759,1.74752 -2.015309,3.88472 -2.521408,5.40302 -0.29152,0.87454 -0.492451,1.96981 -0.720407,2.8816 -0.197764,0.79104 0.197764,1.73038 0,2.52142 -0.185278,0.74115 -0.778366,1.68507 -0.360201,2.5214 0.07593,0.15186 0.306506,0.19916 0.360201,0.3602 0.108069,0.32419 -0.108049,0.75642 0,1.08061 0.400815,1.20244 3.241815,5.06096 3.241815,5.40302"
       id="path9149" /><path
       style="opacity:1;fill:none;stroke:#000000;stroke-width:1.14708;stroke-dasharray:none"
       d="m 13.824631,157.50454 c 3.098899,0.30758 5.728841,-0.52311 8.284628,-1.80102 0.791679,-0.39583 2.122704,-1.65526 2.881611,-2.16119 0.853677,-0.56913 1.725251,-1.00486 2.521408,-1.80101 0.618303,-0.61831 2.161209,-1.1295 2.161209,-2.16122"
       id="path13962" /><path
       style="opacity:1;fill:none;stroke:#000000;stroke-width:1.14708;stroke-dasharray:none"
       d="m 27.152077,147.0587 c 0.480268,0.36021 1.080608,1.56086 1.440808,1.08061 0.360201,-0.48027 -1.865306,-1.50511 -1.440808,-1.08061 0.782745,0.78274 1.738671,1.37846 2.52141,2.1612 0.745271,0.74527 -1.138867,-0.029 0.3602,0.7204 0.107399,0.0538 0.275303,-0.0849 0.360201,0 0.0849,0.0849 -0.0849,0.2753 0,0.36021 0.189846,0.18982 0.530563,0.17033 0.720407,0.3602 0.169788,0.16972 -0.169808,0.5506 0,0.7204 0.180101,0.18008 0.5403,0.18008 0.720401,0.36021 0.0849,0.0849 -0.0849,0.27529 0,0.3602 0.0849,0.0849 0.25281,-0.0538 0.360201,0 0.330054,0.16506 1.080601,1.87414 1.080601,1.08061 0,-0.36021 -0.720401,0 -1.080601,0"
       id="path13966" /><ellipse
       style="opacity:1;fill:#ffffff;stroke:#000000;stroke-width:1.95917;stroke-dasharray:none"
       id="path13970"
       cx="21.929153"
       cy="135.8925"
       rx="5.2229185"
       ry="5.403019" /><ellipse
       style="fill:#ffffff;stroke:#000000;stroke-width:1.3334;stroke-dasharray:none"
       id="path13970-0"
       cx="20.84856"
       cy="136.85045"
       rx="3.5546951"
       ry="3.6772707" /></g></svg>
