<?xml version="1.0" encoding="UTF-8" standalone="no"?>
<!-- Created with Inkscape (http://www.inkscape.org/) -->

<svg
   width="292.2522mm"
   height="335.89279mm"
   viewBox="0 0 292.2522 335.89279"
   version="1.1"
   id="svg35560"
   xml:space="preserve"
   inkscape:version="1.2.1 (9c6d41e410, 2022-07-14)"
   sodipodi:docname="obrazek.svg"
   xmlns:inkscape="http://www.inkscape.org/namespaces/inkscape"
   xmlns:sodipodi="http://sodipodi.sourceforge.net/DTD/sodipodi-0.dtd"
   xmlns="http://www.w3.org/2000/svg"
   xmlns:svg="http://www.w3.org/2000/svg"><sodipodi:namedview
     id="namedview35562"
     pagecolor="#505050"
     bordercolor="#eeeeee"
     borderopacity="1"
     inkscape:showpageshadow="0"
     inkscape:pageopacity="0"
     inkscape:pagecheckerboard="0"
     inkscape:deskcolor="#505050"
     inkscape:document-units="mm"
     showgrid="false"
     inkscape:zoom="0.457453"
     inkscape:cx="878.7788"
     inkscape:cy="962.94045"
     inkscape:window-width="1278"
     inkscape:window-height="1368"
     inkscape:window-x="-7"
     inkscape:window-y="0"
     inkscape:window-maximized="0"
     inkscape:current-layer="layer1" /><defs
     id="defs35557" /><g
     inkscape:groupmode="layer"
     id="layer2"
     inkscape:label="Warstwa 2"
     transform="translate(-92.696046,-104.70189)"><path
       style="fill:#00aa00;fill-opacity:1;stroke:#000000;stroke-width:3.20299"
       d="m 143.14265,201.21766 c 0,0 20.44895,-53.98522 90.79333,-54.80318 70.3444,-0.81796 100.60884,58.07501 100.60884,58.07501 0,0 40.07993,40.8979 -13.08735,58.89298 -2.45385,0.81796 -72.79824,78.52396 -166.04545,3.27183 0.81795,0.81796 -62.164811,-23.72078 -12.26937,-65.43664 z"
       id="path35939" /><path
       style="fill:#00aa00;fill-opacity:1;stroke:#000000;stroke-width:3.20299"
       d="m 179.87731,284.56474 c 0,0 -10.98929,19.08667 -9.25414,49.16263 0,-1.15679 -57.25998,2.31351 -38.7517,54.94644 0,-0.5784 -98.325219,13.88121 23.13534,24.29211 0,-0.57838 35.85979,-4.62708 45.11393,-19.66505 -0.57839,1.73517 32.96787,35.28139 72.87634,-0.57838 0,-0.57838 18.50827,21.97857 36.43815,20.24343 -2.31352,1.15676 142.86077,-7.51898 32.3895,-23.71373 -1.73516,0 25.44887,-48.58422 -39.90848,-58.41674 -0.57838,0 7.51898,-22.55698 -11.56766,-46.27071 0,0 -43.37878,35.28142 -110.47128,0 z"
       id="path36421" /><ellipse
       style="fill:#e9c6af;fill-opacity:1;stroke:#000000;stroke-width:3.20299"
       id="path36427"
       cx="235.69133"
       cy="373.05746"
       rx="39.040894"
       ry="36.438171" /></g><g
     inkscape:label="Warstwa 1"
     inkscape:groupmode="layer"
     id="layer1"
     transform="translate(-92.696046,-104.70189)"><ellipse
       style="fill:#00aa00;fill-opacity:1;stroke:#000000;stroke-width:3.20299"
       id="path36429"
       cx="281.38364"
       cy="358.88702"
       rx="18.79747"
       ry="64.489777" /><ellipse
       style="fill:#00aa00;fill-opacity:1;stroke:#000000;stroke-width:3.20299"
       id="path36429-8"
       cx="189.70985"
       cy="356.8627"
       rx="18.79747"
       ry="64.489777" /><ellipse
       style="fill:#005500;fill-opacity:1;stroke:#000000;stroke-width:3.11935"
       id="path36453"
       cx="170.62318"
       cy="414.12268"
       rx="9.2959604"
       ry="10.452727" /><ellipse
       style="fill:#005500;fill-opacity:1;stroke:#000000;stroke-width:3.11935"
       id="path36453-7"
       cx="187.3963"
       cy="428.00388"
       rx="9.2959604"
       ry="10.452727" /><ellipse
       style="fill:#005500;fill-opacity:1;stroke:#000000;stroke-width:3.11935"
       id="path36453-0"
       cx="207.06134"
       cy="417.59299"
       rx="9.2959604"
       ry="10.452727" /><ellipse
       style="fill:#005500;fill-opacity:1;stroke:#000000;stroke-width:3.11935"
       id="path36453-4"
       cx="263.16455"
       cy="414.70108"
       rx="9.2959604"
       ry="10.452727" /><ellipse
       style="fill:#005500;fill-opacity:1;stroke:#000000;stroke-width:3.11935"
       id="path36453-48"
       cx="279.35928"
       cy="428.58228"
       rx="9.2959604"
       ry="10.452727" /><ellipse
       style="fill:#005500;fill-opacity:1;stroke:#000000;stroke-width:3.11935"
       id="path36453-6"
       cx="296.71082"
       cy="417.01459"
       rx="9.2959604"
       ry="10.452727" /><ellipse
       style="fill:#ff0066;fill-opacity:1;stroke:#000000;stroke-width:3.06178"
       id="path36529"
       cx="149.80135"
       cy="234.24538"
       rx="16.843731"
       ry="17.422115" /><ellipse
       style="fill:#ff0066;fill-opacity:1;stroke:#000000;stroke-width:3.06178"
       id="path36529-4"
       cx="323.31647"
       cy="231.35345"
       rx="16.843731"
       ry="17.422115" /><path
       style="fill:none;stroke:#000000;stroke-width:3.41144"
       d="m 162.00859,244.79247 c 0,0 87.17559,67.03824 152.55728,-1.21888"
       id="path36575" /><path
       style="fill:none;stroke:#000000;stroke-width:3.20299"
       d="m 221.52093,231.93184 -0.57838,9.25413"
       id="path36577" /><path
       style="fill:none;stroke:#000000;stroke-width:3.20299"
       d="m 248.12658,231.35345 v 9.25414"
       id="path36579" /><ellipse
       style="fill:#ffffff;fill-opacity:1;stroke:#000000;stroke-width:3.10961"
       id="path36581"
       cx="266.63486"
       cy="166.57448"
       rx="27.230719"
       ry="47.474152" /><ellipse
       style="fill:#000000;fill-opacity:1;stroke:#000000;stroke-width:3.20299"
       id="path36605-4"
       cx="267.21326"
       cy="167.15286"
       rx="10.700098"
       ry="22.267771" /><ellipse
       style="fill:#ffffff;fill-opacity:1;stroke:#ffffff;stroke-width:3.20299;stroke-opacity:1"
       id="path36631-4"
       cx="270.68353"
       cy="158.47711"
       rx="3.7594938"
       ry="8.6757545" /><path
       style="fill:none;fill-opacity:1;stroke:#000000;stroke-width:3.20299;stroke-opacity:1"
       d="m 294.66297,122.20359 c 0,0 -27.18403,-28.919183 -53.78967,-2.89192"
       id="path43823-4" /><ellipse
       style="fill:#ffffff;fill-opacity:1;stroke:#000000;stroke-width:3.10961"
       id="path36581-4"
       cx="197.60245"
       cy="165.53693"
       rx="27.230719"
       ry="47.474152" /><ellipse
       style="fill:#000000;fill-opacity:1;stroke:#000000;stroke-width:3.20299"
       id="path36605-4-7"
       cx="198.18085"
       cy="166.11531"
       rx="10.700098"
       ry="22.267771" /><ellipse
       style="fill:#ffffff;fill-opacity:1;stroke:#ffffff;stroke-width:3.20299;stroke-opacity:1"
       id="path36631-4-8"
       cx="201.65112"
       cy="157.43956"
       rx="3.7594938"
       ry="8.6757545" /><path
       style="fill:none;fill-opacity:1;stroke:#000000;stroke-width:3.20299;stroke-opacity:1"
       d="m 225.63058,120.00926 c 0,0 -27.18403,-28.919174 -53.78967,-2.89192"
       id="path43823-4-2" /></g></svg>
