<?xml version="1.0" encoding="UTF-8" standalone="no"?>
<!-- Created with Inkscape (http://www.inkscape.org/) -->

<svg
   width="145.41638mm"
   height="169.75867mm"
   viewBox="0 0 145.41638 169.75867"
   version="1.1"
   id="svg5"
   xmlns:inkscape="http://www.inkscape.org/namespaces/inkscape"
   xmlns:sodipodi="http://sodipodi.sourceforge.net/DTD/sodipodi-0.dtd"
   xmlns:xlink="http://www.w3.org/1999/xlink"
   xmlns="http://www.w3.org/2000/svg"
   xmlns:svg="http://www.w3.org/2000/svg">
  <sodipodi:namedview
     id="namedview7"
     pagecolor="#ffffff"
     bordercolor="#000000"
     borderopacity="0.25"
     inkscape:showpageshadow="2"
     inkscape:pageopacity="0.0"
     inkscape:pagecheckerboard="0"
     inkscape:deskcolor="#d1d1d1"
     inkscape:document-units="mm"
     showgrid="false" />
  <defs
     id="defs2">
    <linearGradient
       inkscape:collect="always"
       id="linearGradient2836">
      <stop
         style="stop-color:#008000;stop-opacity:1;"
         offset="0"
         id="stop2832" />
      <stop
         style="stop-color:#d3ffd3;stop-opacity:1;"
         offset="1"
         id="stop2834" />
    </linearGradient>
    <linearGradient
       inkscape:collect="always"
       id="linearGradient2830">
      <stop
         style="stop-color:#008000;stop-opacity:1;"
         offset="0"
         id="stop2826" />
      <stop
         style="stop-color:#e3ffe3;stop-opacity:1;"
         offset="1"
         id="stop2828" />
    </linearGradient>
    <linearGradient
       inkscape:collect="always"
       id="linearGradient1174">
      <stop
         style="stop-color:#008000;stop-opacity:1;"
         offset="0"
         id="stop1170" />
      <stop
         style="stop-color:#96ff96;stop-opacity:1;"
         offset="1"
         id="stop1172" />
    </linearGradient>
    <linearGradient
       inkscape:collect="always"
       xlink:href="#linearGradient1174"
       id="linearGradient1176"
       x1="102.37081"
       y1="228.50838"
       x2="104.51006"
       y2="77.461243"
       gradientUnits="userSpaceOnUse" />
    <linearGradient
       inkscape:collect="always"
       xlink:href="#linearGradient2836"
       id="linearGradient2060"
       gradientUnits="userSpaceOnUse"
       x1="102.37081"
       y1="228.50838"
       x2="104.51006"
       y2="77.461243"
       gradientTransform="matrix(0.71479242,0,0,0.71479242,29.742596,20.061095)" />
    <linearGradient
       inkscape:collect="always"
       xlink:href="#linearGradient2830"
       id="linearGradient2095"
       gradientUnits="userSpaceOnUse"
       x1="102.37081"
       y1="228.50838"
       x2="104.51006"
       y2="77.461243"
       gradientTransform="matrix(0.59580579,0,0,0.59580579,43.505087,17.134282)" />
  </defs>
  <g
     inkscape:label="Warstwa 1"
     inkscape:groupmode="layer"
     id="layer1"
     transform="translate(-26.992091,-84.017271)">
    <path
       style="fill:#803300;stroke:#000000;stroke-width:0.2;stroke-dasharray:none;stroke-opacity:1;paint-order:fill markers stroke"
       d="m 88.821736,202.23254 c 0,2.59272 0,5.18545 0,7.77817 0,2.74385 0.152154,5.54121 0,8.28 -0.164126,2.95427 -0.244514,1.73078 -1.003636,4.76726 -0.413731,1.65493 -0.589907,3.36326 -1.003636,5.01818 -1.475636,5.90255 -0.02257,-0.52546 -1.505452,4.51636 -0.217575,0.73976 -0.231072,1.53619 -0.50182,2.25818 -0.236759,0.63137 -0.702079,1.15325 -1.003633,1.75636 -1.19707,2.39414 -2.331532,4.84062 -4.265451,6.77454 -0.295699,0.2957 -0.691083,0.47491 -1.003636,0.75273 -0.795629,0.70723 -1.46255,1.55096 -2.258179,2.25818 -1.995651,1.77391 -3.030206,1.65987 -2.509089,4.26545 0.191385,0.95693 -0.355503,0.0417 0.250909,1.25455 0.47583,0.95166 0.3945,0.44815 1.003635,0.75272 0.07481,0.0374 0,0.16727 0,0.25091 0.167273,0.0836 0.320385,0.20555 0.501818,0.25091 2.06564,0.51641 4.196209,-0.82085 6.021812,-1.50545 0.985264,-0.36948 2.044083,-0.58929 3.010907,-1.00364 1.170747,-0.50175 3.23287,-1.68881 4.516358,-1.50545 0.938618,0.13409 1.501828,1.00121 2.258182,1.50545 1.01903,0.67935 1.875076,1.80385 3.010905,2.25818 0.155308,0.0621 0.362638,-0.0928 0.501817,0 0.155607,0.10374 0.0953,0.39808 0.25091,0.50182 0.160774,0.10718 3.24136,0.29613 3.512725,0.25091 0.618415,-0.10307 1.207928,-0.50898 1.756358,-0.75273 0.82361,-0.36605 1.49797,-0.52851 2.25818,-1.00363 2.31889,-1.44931 5.77435,-3.76278 8.78181,-3.01091 1.39387,0.34846 2.78772,1.30623 4.01454,2.00727 0.72903,0.41659 4.03678,1.82465 4.76727,2.00727 0.58796,0.14699 1.90203,0 2.50909,0 1.60444,0 3.19903,-0.84679 4.51636,-1.50545 0.34103,-0.17051 0.66261,-0.58222 1.00364,-0.75273 0.0748,-0.0374 0.19176,0.0591 0.2509,0 0.0256,-0.0256 0.68543,-1.1536 0.75273,-1.25454 0.13122,-0.19683 0.42701,-0.2774 0.50182,-0.50182 0.14362,-0.43085 -0.21983,-0.51736 0.25091,-0.75273 0.0748,-0.0374 0.19177,0.0591 0.25091,0 0.25091,-0.25091 0,-1.00363 0.25091,-1.25454 0.17264,-0.17265 1.73565,0.24055 1.75636,0.25091 0.1479,0.0739 0.48702,0.74533 0.50182,0.75272 0.14961,0.0748 0.3522,-0.0748 0.50181,0 0.0748,0.0374 -0.0464,0.18132 0,0.25091 0.23399,0.35098 1.09634,1.36908 1.50546,1.50546 0.23557,0.0785 1.44665,0.19211 1.50545,0.2509 0.0591,0.0591 -0.0591,0.19177 0,0.25091 0.20909,0.20909 1.04545,-0.20909 1.25454,0 0.0591,0.0591 -0.0591,0.19177 0,0.25091 0.11828,0.11828 0.33455,0 0.50182,0 0.56122,0 1.76687,0.24566 2.25818,0 0.10579,-0.0529 0.14512,-0.19801 0.25091,-0.25091 0.14961,-0.0748 0.3522,0.0748 0.50182,0 0.55834,-0.27917 0.47681,-0.97862 0.75272,-1.25454 0.0591,-0.0591 0.21351,0.0748 0.25091,0 0.0779,-0.15571 0,-0.78133 0,-1.00364 0,-0.50182 0.15869,-1.02938 0,-1.50545 -0.17267,-0.51803 -0.54131,-0.58081 -0.75272,-1.00363 -0.20846,-0.41691 -1.02357,-1.76633 -1.50546,-2.00728 -0.33429,-0.16714 -0.95462,-0.4528 -1.25454,-0.75272 -0.13224,-0.13224 -0.11867,-0.36958 -0.25091,-0.50182 -0.35801,-0.35801 -1.07951,-0.71967 -1.50545,-1.00364 -0.54172,-0.36114 -0.92554,-0.15386 -1.50546,-0.50181 -0.20284,-0.12171 -0.31257,-0.35989 -0.50181,-0.50182 -0.29923,-0.22442 -0.73916,-0.23734 -1.00364,-0.50182 -0.13224,-0.13224 -0.10129,-0.38961 -0.25091,-0.50182 -0.39194,-0.29396 -0.89673,-0.144 -1.25454,-0.50181 -0.13224,-0.13225 -0.11867,-0.36958 -0.25091,-0.50182 -0.51318,-0.51318 -1.39886,-0.84894 -2.00727,-1.25455 -0.0836,-0.0836 -0.16728,-0.16727 -0.25091,-0.25091 0,-0.0836 0.0591,-0.19176 0,-0.2509 -0.37636,-0.37637 -0.87818,-0.62728 -1.25455,-1.00364 -3.02906,-3.02906 0.71884,0.54026 -1.00363,-1.75636 -0.0862,-0.11495 -1.32052,-1.06962 -1.50545,-1.25454 -0.77014,-0.77015 0.14659,-0.20863 -0.25091,-1.00364 -0.18702,-0.37403 -0.50182,-0.66909 -0.75273,-1.00364 -1.1848,-1.57973 -2.12717,-3.25071 -3.01091,-5.01817 -0.25301,-0.50603 -0.17296,-0.81607 -0.50181,-1.25455 -0.14194,-0.18925 -0.38011,-0.29897 -0.50182,-0.50182 -0.27215,-0.45358 -0.30537,-1.01432 -0.50182,-1.50545 -0.1656,-0.41402 -0.62733,-0.87838 -0.75273,-1.25455 -0.0529,-0.15869 0.0529,-0.34313 0,-0.50182 -0.0374,-0.11221 -0.22222,-0.13616 -0.2509,-0.2509 -0.0609,-0.24342 0.0492,-0.50669 0,-0.75273 -0.13799,-0.68992 -1.11564,-1.95347 -1.25455,-2.50909 -0.0609,-0.24342 0.0492,-0.50669 0,-0.75272 -0.10623,-0.53116 -0.62118,-0.97927 -0.75272,-1.50546 -0.13523,-0.54091 0.17575,-1.2291 0,-1.75636 -0.65465,-1.96395 -0.25091,-8.00828 -0.25091,-10.53817"
       id="path12605" />
    <path
       style="fill:url(#linearGradient1176);fill-opacity:1;stroke:#000000;stroke-width:0.3;stroke-dasharray:none;stroke-opacity:1;paint-order:fill markers stroke"
       d="m 28.101792,220.54888 c -0.09778,0.24444 -0.674946,1.23698 -0.501819,1.75636 0.0374,0.11221 0.222224,0.13617 0.25091,0.25091 0.06085,0.24342 -0.11221,0.52831 0,0.75273 0.08364,0.16727 0.389607,0.1013 0.501816,0.25091 0.15869,0.21159 0.132631,0.51617 0.25091,0.75273 0.216469,0.43293 3.322129,1.88112 3.763634,2.00727 0.241255,0.0689 0.506691,-0.0492 0.752727,0 0.366768,0.0733 0.643993,0.39906 1.003633,0.50182 0.663146,0.18947 1.330984,0.36655 2.007272,0.50181 0.559086,0.11182 1.204317,-0.13801 1.756362,0 1.676911,0.41923 4.015037,0.50175 5.770904,0.25091 0.923909,-0.13199 1.869292,-0.60427 2.759996,-0.75272 0.329994,-0.055 0.673642,0.055 1.003636,0 0.368946,-0.0615 0.648798,-0.38354 1.003636,-0.50182 0.327144,-0.10905 0.695201,-0.0967 1.003636,-0.25091 0.211585,-0.10579 0.298969,-0.38011 0.501817,-0.50182 0.453583,-0.27215 1.019259,-0.29345 1.505452,-0.50182 0.856523,0.17755 0.966015,-0.73391 1.505456,-1.00363 0.778311,-0.38916 1.742823,-0.54388 2.509086,-1.00364 0.609346,-0.36561 1.147019,-0.88894 1.756362,-1.25454 1.074798,-0.64488 2.354048,-1.00888 3.512725,-1.50545 0.858893,-0.3681 1.66883,-0.89444 2.509088,-1.25455 1.782297,-0.76384 0.359805,-0.0218 1.505453,-0.25091 0.768869,-0.15377 1.485146,-0.62389 2.258179,-0.75273 1.675514,-0.27925 3.810598,-0.5358 5.519997,-0.2509 1.435407,0.23923 0.145365,0.31695 1.254543,0.50181 0.329994,0.055 0.693018,-0.12424 1.003636,0 0.173641,0.0695 0.09054,0.4056 0.25091,0.50182 0.744659,0.4468 1.758674,0.25168 2.509088,0.50182 0.462653,0.15422 0.79189,0.59851 1.254543,0.75273 0.308026,0.10267 0.695611,0.14823 1.003636,0.25091 0.651463,0.21715 1.994152,1.37015 2.509089,1.75636 0.677016,0.50776 0.411176,-0.004 1.254543,0.50181 0.202848,0.12171 0.312571,0.35989 0.501819,0.50182 0.446987,0.33524 0.789996,0.19212 1.254543,0.50182 0.429641,0.28643 0.824905,0.71721 1.254546,1.00363 1.54174,1.02783 3.597632,1.29094 5.269085,2.00728 0.277172,0.11878 0.47037,0.39593 0.752726,0.50181 4.165893,1.56221 -0.249508,-0.25056 1.756362,0.25091 0.467567,0.1169 0.85476,0.61947 1.254546,0.75273 0.404577,0.13486 0.833882,0.1808 1.254543,0.25091 1.095073,0.18251 2.399218,0 3.512722,0 1.11762,0 2.67565,0.272 3.76363,0 0.18144,-0.0454 0.33455,-0.16727 0.50182,-0.25091 0.41818,-0.16727 0.81488,-0.40412 1.25455,-0.50182 0.54772,-0.12171 1.98,-0.0393 2.50909,-0.25091 0.21963,-0.0879 0.28217,-0.41396 0.50181,-0.50181 0.23297,-0.0932 0.50669,0.0492 0.75273,0 0.79226,-0.15846 1.56356,-0.90724 2.25818,-1.25455 0.99232,-0.49616 2.0316,-0.94585 3.01091,-1.50545 1.18928,-0.67959 0.37321,-0.31101 1.50545,-1.25455 0.62405,-0.52004 1.53179,-1.14225 2.25818,-1.50545 0.23656,-0.11828 0.52593,-0.11484 0.75272,-0.25091 0.20285,-0.12171 0.29897,-0.38011 0.50182,-0.50182 0.84432,-0.50658 1.95009,-0.67967 2.76,-1.00363 0.4528,-0.18112 0.79792,-0.58149 1.25454,-0.75273 0.23494,-0.0881 0.50931,0.0609 0.75273,0 0.43695,-0.10924 0.8176,-0.39258 1.25455,-0.50182 0.24341,-0.0608 0.50433,0.0355 0.75272,0 0.63532,0.0238 1.15577,-0.40171 1.75636,-0.50181 0.94037,-0.15673 2.05575,0 3.01091,0 0.69785,0 1.58511,-0.16827 2.25818,0 1.04195,0.26048 2.32018,0.68956 3.26181,1.25454 0.20285,0.12171 0.30122,0.37644 0.50182,0.50182 0.69852,0.43657 1.5992,0.5094 2.25818,1.00363 0.14961,0.11221 0.11867,0.36958 0.25091,0.50182 0.62367,0.62367 1.81741,0.7012 2.50909,1.25454 0.27708,0.22167 0.44845,0.57017 0.75272,0.75273 0.14344,0.0861 0.36265,-0.0928 0.50182,0 0.15561,0.10374 0.11867,0.36958 0.25091,0.50182 0.2957,0.2957 0.64505,0.53757 1.00364,0.75273 0.53856,0.17952 0.79306,0.22492 1.25454,0.50181 1.87835,1.12701 3.68688,1.65994 5.77091,2.00728 0.52176,0.087 0.9818,0.42701 1.50545,0.50181 2.12595,0.30371 4.31691,0.50182 6.52363,0.50182 0.73653,0 1.76717,0.14838 2.50909,0 0.25934,-0.0519 0.49338,-0.19904 0.75272,-0.25091 0.16403,-0.0328 0.35221,0.0748 0.50182,0 0.38385,-0.0665 0.43535,-0.59404 0.75273,-0.75272 0.29707,-0.14854 1.8695,-0.84124 2.00727,-1.25455 0.0529,-0.15869 -0.0748,-0.3522 0,-0.50182 0.10579,-0.21158 0.35988,-0.31257 0.50182,-0.50182 0.53347,-0.71129 1.04349,-1.48825 1.50545,-2.25818 0.36009,-0.60014 0.88564,-0.95209 1.25454,-1.50545 0.43848,-0.65771 0.0938,-0.43847 0.50182,-1.25454 0.17051,-0.34103 0.58222,-0.66261 0.75273,-1.00364 0.36724,-0.73448 0.30391,-1.71747 0.50182,-2.50909 0.0907,-0.36286 0.4111,-0.64077 0.50181,-1.00363 0.36656,-1.46623 -0.10562,-3.88241 -0.50181,-5.26909 -0.12374,-0.43306 -0.41349,-0.81289 -0.50182,-1.25454 -0.0492,-0.24604 0.0932,-0.51977 0,-0.75273 -0.0879,-0.21964 -0.38011,-0.29897 -0.50182,-0.50181 -0.60992,-1.01654 -0.76047,-2.26852 -1.50545,-3.26182 -0.56774,-0.75699 -1.33818,-1.33818 -2.00727,-2.00727 -0.87918,-0.87918 -1.59255,-1.91984 -2.50909,-2.76 -0.53036,-0.48616 -1.1861,-0.81588 -1.75636,-1.25454 -3.60378,-2.77214 0.69735,0.45013 -3.01091,-3.01091 -1.74072,-1.62467 -3.02974,-2.16058 -5.01818,-3.51272 -3.3928,-2.30711 -6.64776,-4.88501 -9.78544,-7.52727 -3.51971,-2.96396 -6.91547,-6.17358 -10.03635,-9.53453 -1.08728,-1.17091 -2.42893,-2.0877 -3.51273,-3.26182 -0.488,-0.52867 -0.78632,-1.2101 -1.25455,-1.75636 -1.1168,-1.30294 -2.34181,-2.50909 -3.51272,-3.76364 -0.56493,-0.60528 -1.17091,-1.1709 -1.75636,-1.75636 -0.75273,-0.66909 -1.56937,-1.27254 -2.25818,-2.00727 -0.57202,-0.61016 -0.97377,-1.36166 -1.50545,-2.00727 -0.64023,-0.77742 -1.35855,-1.48783 -2.00727,-2.25818 -2.11759,-2.51463 -1.67142,-2.2747 -3.76364,-4.51636 -0.56493,-0.60528 -1.24483,-1.10532 -1.75636,-1.75636 -0.41659,-0.53021 -0.57196,-1.23835 -1.00363,-1.75636 -1.19731,-1.43678 -4.08447,-2.96018 -5.01818,-4.51636 -0.13608,-0.22679 -0.13263,-0.51617 -0.25091,-0.75273 -0.52874,-1.05748 -1.31156,-2.08329 -2.00727,-3.0109 -0.38021,-0.50695 -0.2515,-0.87967 -0.50182,-1.50546 -0.13178,-0.32946 -0.59404,-0.43535 -0.75273,-0.75272 -0.0748,-0.14962 0.0529,-0.34313 0,-0.50182 -0.0555,-0.16663 -0.65692,-0.84853 -0.75272,-0.75273 -0.13224,0.13224 -0.1387,0.35221 -0.25091,0.50182 -0.28387,0.37849 -0.71977,0.62514 -1.00364,1.00363 -2.536619,3.80494 0.20896,-0.10019 -1.75636,2.25819 -1.106633,1.32795 -1.886183,2.95327 -3.010905,4.26544 -2.621701,2.62171 0.278053,-0.48963 -1.505453,2.00728 -2.052791,2.8739 0.643834,-1.6825 -1.505453,1.75636 -1.43311,2.29297 0.554728,-0.31894 -1.254543,2.00727 -0.540641,0.69511 -1.466633,1.56307 -2.007272,2.25818 -0.777793,1.00002 -1.537978,2.20552 -2.258179,3.26181 -6.500931,9.5347 -0.697995,1.75752 -4.265451,5.77091 -0.659326,0.74174 -1.06213,1.81485 -1.756362,2.50909 -0.132242,0.13224 -0.369578,0.11866 -0.501817,0.2509 -0.213233,0.21324 -0.308769,0.52107 -0.501819,0.75273 -1.164095,1.39692 -2.637221,2.80939 -4.014542,4.01454 -0.314714,0.27538 -0.707935,0.45703 -1.003636,0.75273 -2.997927,2.99793 1.761969,-1.12013 -1.756359,2.00727 -0.400265,0.35579 -0.875866,0.62496 -1.254546,1.00364 -0.37868,0.37868 -0.605576,0.89629 -1.003636,1.25454 -2.617028,2.35532 -0.443137,-0.30959 -2.759996,2.00727 -0.461896,0.4619 -0.769011,1.06847 -1.254545,1.50545 -0.362488,0.32624 -0.890048,0.42873 -1.254543,0.75273 -0.400265,0.35579 -0.624957,0.87587 -1.003636,1.25455 -0.37868,0.37867 -0.851514,0.65098 -1.254544,1.00363 -1.687613,1.47666 -3.091158,3.27739 -4.76727,4.76727 -0.312552,0.27782 -0.707935,0.45702 -1.003633,0.75273 -1.218676,1.21867 -2.219682,2.59989 -3.512725,3.76363 -1.221473,1.09932 -2.603257,2.10143 -3.763634,3.26181 -1.077048,1.07705 -1.933858,2.43568 -3.010906,3.51273 -1.046731,1.04673 -2.265209,1.88972 -3.261815,3.0109 -0.940855,1.05847 -1.839693,2.18813 -2.759998,3.26182 -1.773976,2.06964 -3.15763,4.91399 -5.018175,6.77454 -0.295701,0.2957 -0.707938,0.45703 -1.003636,0.75272 -0.796935,0.79694 -1.38354,1.7594 -2.258179,2.50909 -0.317508,0.27215 -0.707938,0.45703 -1.003636,0.75273 -0.426066,0.42606 -2.843694,3.1783 -3.010908,3.51272 -0.832159,2.49648 0.354841,-0.47312 -0.752726,1.00364 -0.158689,0.21158 -0.01434,0.63445 -0.250907,0.75273 -0.528963,0.26448 -1.294559,-0.11854 -1.756363,0.2509 -0.584141,0.46732 -0.474673,1.47831 -1.003636,2.00727"
       id="path124" />
    <path
       style="fill:url(#linearGradient2060);fill-opacity:1;stroke:#000000;stroke-width:0.3;stroke-dasharray:none;stroke-opacity:1;paint-order:fill markers stroke"
       d="m 49.829543,177.70776 c -0.06989,0.17473 -0.482446,0.88419 -0.358696,1.25544 0.02673,0.0802 0.158844,0.0973 0.179348,0.17935 0.0435,0.17399 -0.08021,0.37763 0,0.53804 0.05979,0.11956 0.278489,0.0724 0.358695,0.17935 0.11343,0.15124 0.0948,0.36895 0.179348,0.53805 0.154731,0.30945 2.374633,1.34461 2.690217,1.43478 0.172448,0.0493 0.362179,-0.0352 0.538044,0 0.262163,0.0524 0.460321,0.28524 0.717389,0.35869 0.474012,0.13544 0.951377,0.26201 1.434783,0.35869 0.39963,0.0799 0.860837,-0.0986 1.255434,0 1.198643,0.29967 2.869918,0.35865 4.124999,0.17935 0.660403,-0.0943 1.336155,-0.43192 1.972824,-0.53804 0.235877,-0.0393 0.481514,0.0393 0.717391,0 0.26372,-0.044 0.463756,-0.27415 0.717392,-0.35869 0.23384,-0.078 0.496924,-0.0691 0.717391,-0.17935 0.151239,-0.0756 0.213701,-0.2717 0.358695,-0.3587 0.324218,-0.19453 0.728559,-0.20975 1.076086,-0.3587 0.612236,0.12692 0.6905,-0.52459 1.076088,-0.71738 0.556331,-0.27817 1.245757,-0.38876 1.793476,-0.7174 0.435556,-0.26133 0.81988,-0.6354 1.255434,-0.89673 0.768258,-0.46096 1.682656,-0.72114 2.510869,-1.07609 0.61393,-0.26311 1.192867,-0.63934 1.793477,-0.89674 1.273973,-0.54599 0.257186,-0.0156 1.076087,-0.17935 0.549581,-0.10991 1.061571,-0.44595 1.614129,-0.53804 1.197645,-0.19961 2.723787,-0.38299 3.945652,-0.17935 1.026018,0.171 0.103906,0.22656 0.896738,0.35869 0.235877,0.0393 0.495364,-0.0888 0.717391,0 0.124117,0.0497 0.06472,0.28992 0.179349,0.3587 0.532276,0.31937 1.257087,0.1799 1.793477,0.3587 0.330701,0.11023 0.566037,0.42781 0.896738,0.53804 0.220174,0.0734 0.497217,0.10596 0.717391,0.17935 0.465661,0.15522 1.425405,0.97938 1.793478,1.25544 0.483926,0.36294 0.293905,-0.003 0.896738,0.35869 0.144994,0.087 0.223423,0.25724 0.358696,0.35869 0.319503,0.23963 0.564683,0.13733 0.896738,0.3587 0.307104,0.20474 0.589636,0.51266 0.89674,0.71739 1.102024,0.73468 2.57156,0.92275 3.766302,1.43479 0.19812,0.0849 0.336217,0.283 0.538043,0.35869 2.977748,1.11665 -0.178347,-0.1791 1.255434,0.17934 0.334213,0.0836 0.610976,0.4428 0.89674,0.53805 0.289189,0.0964 0.596052,0.12923 0.896738,0.17935 0.782748,0.13046 1.714944,0 2.510874,0 0.79887,0 1.91253,0.19442 2.69021,0 0.1297,-0.0325 0.23914,-0.11956 0.3587,-0.17935 0.29891,-0.11956 0.58247,-0.28886 0.89674,-0.3587 0.39151,-0.087 1.41529,-0.0281 1.79348,-0.17935 0.15699,-0.0628 0.2017,-0.29589 0.35869,-0.35869 0.16653,-0.0666 0.36218,0.0352 0.53805,0 0.5663,-0.11326 1.11762,-0.64848 1.61413,-0.89674 0.7093,-0.35465 1.45217,-0.67608 2.15217,-1.07608 0.85009,-0.48577 0.26677,-0.22231 1.07609,-0.89675 0.44606,-0.37172 1.09491,-0.81647 1.61413,-1.07608 0.16909,-0.0846 0.37593,-0.0821 0.53804,-0.17935 0.14499,-0.087 0.2137,-0.2717 0.35869,-0.3587 0.60352,-0.3621 1.39391,-0.48582 1.97283,-0.71738 0.32366,-0.12947 0.57035,-0.41565 0.89674,-0.53805 0.16793,-0.063 0.36405,0.0435 0.53805,0 0.31232,-0.0781 0.58441,-0.28061 0.89674,-0.3587 0.17399,-0.0434 0.36049,0.0254 0.53804,0 0.45412,0.017 0.82613,-0.28713 1.25543,-0.35869 0.67217,-0.11202 1.46944,0 2.15218,0 0.49881,0 1.13302,-0.12027 1.61413,0 0.74477,0.18619 1.65844,0.4929 2.33151,0.89674 0.145,0.087 0.21531,0.26908 0.3587,0.3587 0.4993,0.31205 1.1431,0.36411 1.61413,0.71738 0.10694,0.0802 0.0848,0.26418 0.17935,0.3587 0.44579,0.4458 1.29907,0.50121 1.79348,0.89674 0.19805,0.15845 0.32055,0.40755 0.53804,0.53804 0.10253,0.0616 0.25922,-0.0663 0.35869,0 0.11123,0.0742 0.0848,0.26418 0.17935,0.3587 0.21137,0.21136 0.46108,0.38425 0.7174,0.53805 0.38495,0.12832 0.56687,0.16077 0.89673,0.35869 1.34263,0.80557 2.63536,1.18651 4.125,1.43478 0.37295,0.0622 0.70179,0.30523 1.07609,0.35869 1.51961,0.21709 3.08569,0.3587 4.66304,0.3587 0.52647,0 1.26316,0.10606 1.79348,0 0.18537,-0.0371 0.35266,-0.14227 0.53804,-0.17935 0.11724,-0.0234 0.25175,0.0535 0.35869,0 0.27438,-0.0475 0.31119,-0.42461 0.53805,-0.53804 0.21234,-0.10617 1.3363,-0.60131 1.43478,-0.89674 0.0378,-0.11343 -0.0535,-0.25175 0,-0.3587 0.0756,-0.15123 0.25724,-0.22342 0.3587,-0.35869 0.38132,-0.50843 0.74588,-1.06379 1.07608,-1.61413 0.25739,-0.42898 0.63305,-0.68055 0.89674,-1.07609 0.31342,-0.47012 0.067,-0.31341 0.3587,-0.89673 0.12187,-0.24377 0.41616,-0.47363 0.53804,-0.7174 0.2625,-0.525 0.21723,-1.22763 0.3587,-1.79348 0.0648,-0.25936 0.29385,-0.45801 0.35869,-0.71738 0.26201,-1.04805 -0.0755,-2.77512 -0.35869,-3.76631 -0.0884,-0.30955 -0.29556,-0.58105 -0.3587,-0.89673 -0.0352,-0.17587 0.0666,-0.37153 0,-0.53805 -0.0628,-0.157 -0.2717,-0.2137 -0.3587,-0.35869 -0.43596,-0.72661 -0.54357,-1.62152 -1.07608,-2.33152 -0.40582,-0.54109 -0.95652,-0.95652 -1.43478,-1.43479 -0.62843,-0.62843 -1.13834,-1.37228 -1.79348,-1.97282 -0.3791,-0.34751 -0.84782,-0.58319 -1.25543,-0.89674 -2.57596,-1.9815 0.49846,0.32175 -2.15218,-2.15217 -1.24425,-1.16131 -2.16563,-1.54437 -3.58696,-2.51087 -2.42514,-1.6491 -4.75176,-3.49177 -6.99455,-5.38043 -2.51587,-2.11862 -4.94313,-4.41283 -7.17391,-6.81521 -0.77718,-0.83696 -1.73618,-1.49228 -2.51087,-2.33153 -0.34882,-0.37789 -0.56206,-0.86497 -0.89675,-1.25543 -0.79828,-0.93133 -1.6739,-1.79348 -2.51086,-2.69022 -0.40381,-0.43265 -0.83696,-0.83695 -1.25543,-1.25544 -0.53806,-0.47826 -1.12178,-0.9096 -1.61414,-1.43478 -0.40887,-0.43613 -0.69604,-0.9733 -1.07608,-1.43478 -0.45764,-0.55569 -0.97108,-1.06349 -1.43479,-1.61413 -1.51363,-1.79744 -1.19471,-1.62594 -2.69022,-3.22826 -0.4038,-0.43265 -0.88979,-0.79007 -1.25543,-1.25543 -0.29777,-0.37899 -0.40883,-0.88516 -0.71739,-1.25543 -0.85582,-1.027 -2.91954,-2.11592 -3.58695,-3.22826 -0.0973,-0.16211 -0.0948,-0.36896 -0.17935,-0.53805 -0.37794,-0.75588 -0.9375,-1.48912 -1.43478,-2.15217 -0.27177,-0.36236 -0.17977,-0.62878 -0.3587,-1.07609 -0.0942,-0.2355 -0.42462,-0.31118 -0.53805,-0.53804 -0.0535,-0.10695 0.0378,-0.24527 0,-0.3587 -0.0397,-0.1191 -0.46956,-0.60652 -0.53803,-0.53804 -0.0945,0.0945 -0.0991,0.25176 -0.17935,0.3587 -0.20291,0.27054 -0.51449,0.44684 -0.7174,0.71738 -1.81315,2.71975 0.14937,-0.0716 -1.25543,1.61414 -0.79102,0.94921 -1.34823,2.11098 -2.152176,3.0489 -1.873975,1.87398 0.198748,-0.34998 -1.07609,1.43479 -1.467319,2.05425 0.460208,-1.20264 -1.076086,1.25544 -1.024376,1.63899 0.396515,-0.22798 -0.896738,1.43478 -0.386446,0.49686 -1.048338,1.11727 -1.434783,1.61413 -0.55596,0.7148 -1.099335,1.57649 -1.614129,2.33151 -4.646816,6.81534 -0.498921,1.25627 -3.048912,4.12501 -0.471281,0.53019 -0.759202,1.29724 -1.255434,1.79348 -0.09453,0.0945 -0.264172,0.0848 -0.358695,0.17934 -0.152417,0.15242 -0.220706,0.37245 -0.358697,0.53804 -0.832086,0.99851 -1.885065,2.00813 -2.869564,2.86957 -0.224955,0.19684 -0.506026,0.32668 -0.717391,0.53804 -2.142896,2.1429 1.259442,-0.80066 -1.255432,1.43478 -0.286107,0.25432 -0.626063,0.44672 -0.89674,0.7174 -0.270678,0.27067 -0.432861,0.64066 -0.717392,0.89673 -1.870631,1.68357 -0.316751,-0.22129 -1.972824,1.43478 -0.33016,0.33017 -0.549683,0.76374 -0.896739,1.07609 -0.259104,0.23319 -0.6362,0.30645 -0.896738,0.53804 -0.286106,0.25432 -0.446714,0.62607 -0.717391,0.89675 -0.270678,0.27067 -0.608656,0.46531 -0.896739,0.71738 -1.206293,1.05551 -2.209536,2.34266 -3.407608,3.40761 -0.22341,0.19859 -0.506027,0.32668 -0.71739,0.53805 -0.8711,0.87109 -1.586611,1.85838 -2.510869,2.69021 -0.873099,0.78579 -1.860788,1.50209 -2.690217,2.33152 -0.769866,0.76987 -1.382307,1.74101 -2.152173,2.51087 -0.748195,0.7482 -1.619154,1.35076 -2.33152,2.15217 -0.672516,0.75659 -1.314999,1.56406 -1.972826,2.33152 -1.268024,1.47937 -2.25705,3.51249 -3.586953,4.84239 -0.211365,0.21137 -0.506029,0.32669 -0.717392,0.53804 -0.569643,0.56965 -0.988944,1.25761 -1.614129,1.79348 -0.226952,0.19453 -0.506029,0.32668 -0.717391,0.53805 -0.304549,0.30454 -2.032651,2.27182 -2.152174,2.51086 -0.594821,1.78447 0.253637,-0.33818 -0.538043,0.7174 -0.11343,0.15123 -0.01025,0.4535 -0.179347,0.53804 -0.378098,0.18905 -0.925341,-0.0847 -1.255435,0.17934 -0.417539,0.33404 -0.339292,1.05669 -0.717391,1.43479"
       id="path124-9" />
    <path
       style="fill:url(#linearGradient2095);fill-opacity:1;stroke:#000000;stroke-width:0.3;stroke-dasharray:none;stroke-opacity:1;paint-order:fill markers stroke"
       d="m 60.248297,148.53858 c -0.05825,0.14564 -0.402137,0.73699 -0.298986,1.04645 0.02228,0.0669 0.132402,0.0811 0.149493,0.14949 0.03625,0.14503 -0.06686,0.31477 0,0.44848 0.04983,0.0997 0.23213,0.0603 0.298985,0.14949 0.09454,0.12608 0.07902,0.30754 0.149493,0.44849 0.128974,0.25794 1.979344,1.12078 2.242396,1.19594 0.143741,0.0411 0.301889,-0.0293 0.448478,0 0.218523,0.0437 0.383695,0.23776 0.597971,0.29899 0.395106,0.11289 0.793007,0.21839 1.195944,0.29898 0.333106,0.0666 0.71754,-0.0822 1.046451,0 0.999113,0.24978 2.392182,0.29894 3.438337,0.14949 0.550471,-0.0786 1.113736,-0.36003 1.644423,-0.44847 0.196611,-0.0328 0.401359,0.0328 0.597971,0 0.21982,-0.0366 0.386558,-0.22852 0.597972,-0.29899 0.194915,-0.0649 0.414206,-0.0576 0.597973,-0.14949 0.126063,-0.063 0.178127,-0.22648 0.298985,-0.29899 0.270247,-0.16215 0.607281,-0.17484 0.896958,-0.29899 0.510321,0.10578 0.575556,-0.43727 0.896959,-0.59796 0.463721,-0.23187 1.038384,-0.32405 1.494927,-0.59798 0.363053,-0.21784 0.683401,-0.52964 1.046451,-0.74746 0.640371,-0.38423 1.402556,-0.6011 2.092902,-0.89696 0.511733,-0.21931 0.994299,-0.53291 1.494929,-0.74747 1.061903,-0.4551 0.214374,-0.013 0.896958,-0.14949 0.458097,-0.0916 0.884858,-0.37171 1.345435,-0.44848 0.998282,-0.16638 2.270377,-0.31924 3.288847,-0.14949 0.855224,0.14253 0.08661,0.18884 0.747464,0.29898 0.196612,0.0328 0.412904,-0.074 0.597972,0 0.103456,0.0414 0.05394,0.24166 0.149494,0.29899 0.443671,0.26621 1.047828,0.14995 1.494929,0.29899 0.275651,0.0918 0.471813,0.35659 0.747463,0.44848 0.183525,0.0612 0.414449,0.0884 0.597973,0.14949 0.388143,0.12938 1.188125,0.81635 1.494929,1.04645 0.403373,0.30253 0.244984,-0.002 0.747463,0.29898 0.120859,0.0726 0.186231,0.21443 0.298987,0.29899 0.266319,0.19973 0.470686,0.11446 0.747468,0.29898 0.255982,0.17067 0.49148,0.42733 0.747463,0.59798 0.918577,0.61238 2.143488,0.76914 3.139354,1.19594 0.165139,0.0707 0.280249,0.2359 0.448474,0.29899 2.482068,0.93077 -0.148659,-0.14929 1.04645,0.14949 0.278581,0.0697 0.509268,0.36908 0.747468,0.44847 0.24105,0.0804 0.49683,0.10773 0.74747,0.14951 0.65245,0.10874 1.42946,0 2.0929,0 0.66589,0 1.59417,0.16205 2.24239,0 0.1081,-0.0271 0.19933,-0.0997 0.29899,-0.14951 0.24916,-0.0996 0.48551,-0.24076 0.74746,-0.29898 0.32634,-0.0725 1.1797,-0.0234 1.49494,-0.14949 0.13085,-0.0523 0.16812,-0.24664 0.29897,-0.29898 0.13881,-0.0555 0.3019,0.0293 0.44849,0 0.47204,-0.0944 0.93157,-0.54054 1.34544,-0.74747 0.59122,-0.29561 1.21043,-0.56354 1.79391,-0.89695 0.70857,-0.40491 0.22236,-0.18531 0.89695,-0.74747 0.37182,-0.30985 0.91265,-0.68057 1.34544,-0.89697 0.14094,-0.0704 0.31335,-0.0684 0.44847,-0.14949 0.12086,-0.0725 0.17812,-0.22647 0.299,-0.29898 0.50303,-0.30183 1.16186,-0.40496 1.64442,-0.59797 0.26977,-0.10791 0.4754,-0.34645 0.74745,-0.44848 0.13999,-0.0525 0.30346,0.0363 0.44848,0 0.26034,-0.065 0.48714,-0.2339 0.74747,-0.29899 0.14503,-0.0362 0.30049,0.0212 0.44849,0 0.37852,0.0142 0.6886,-0.23934 1.04644,-0.29898 0.56028,-0.0934 1.22482,0 1.79391,0 0.41579,0 0.94442,-0.10026 1.34544,0 0.6208,0.1552 1.38238,0.41084 1.9434,0.74746 0.12086,0.0726 0.17947,0.22429 0.29899,0.29899 0.41619,0.26011 0.95282,0.30351 1.34544,0.59797 0.0891,0.0669 0.0707,0.22019 0.1495,0.29898 0.37159,0.37159 1.08281,0.41779 1.49492,0.74747 0.1651,0.13207 0.26719,0.33971 0.44848,0.44848 0.0855,0.0513 0.21608,-0.0553 0.29899,0 0.0927,0.0618 0.0707,0.22019 0.14949,0.29898 0.17619,0.17619 0.38433,0.32029 0.59798,0.44849 0.32087,0.10695 0.4725,0.134 0.74746,0.29898 1.11913,0.67148 2.19666,0.989 3.43834,1.19595 0.31087,0.0518 0.58496,0.25441 0.89695,0.29898 1.26666,0.18095 2.57205,0.29898 3.88682,0.29898 0.43883,0 1.05289,0.0884 1.49493,0 0.15451,-0.0309 0.29396,-0.11858 0.44848,-0.14949 0.0977,-0.0196 0.20984,0.0446 0.29898,0 0.2287,-0.0396 0.25939,-0.35393 0.44848,-0.44847 0.177,-0.0885 1.11387,-0.50122 1.19595,-0.74747 0.0315,-0.0945 -0.0445,-0.20984 0,-0.29899 0.063,-0.12606 0.21442,-0.18623 0.29899,-0.29898 0.31785,-0.4238 0.62172,-0.88671 0.89695,-1.34544 0.21455,-0.35757 0.52767,-0.56726 0.74746,-0.89696 0.26125,-0.39187 0.0559,-0.26125 0.299,-0.74746 0.10159,-0.20319 0.34688,-0.39479 0.44847,-0.59798 0.21881,-0.4376 0.18107,-1.02327 0.299,-1.49492 0.0541,-0.2162 0.24493,-0.38178 0.29897,-0.59797 0.2184,-0.87359 -0.0629,-2.31317 -0.29897,-3.13936 -0.0737,-0.25802 -0.24636,-0.48432 -0.299,-0.74746 -0.0293,-0.14659 0.0555,-0.30968 0,-0.44848 -0.0523,-0.13086 -0.22647,-0.17813 -0.29898,-0.29898 -0.3634,-0.60567 -0.45309,-1.3516 -0.89695,-1.94341 -0.33827,-0.45102 -0.7973,-0.7973 -1.19595,-1.19595 -0.52382,-0.52382 -0.94885,-1.14385 -1.49493,-1.64442 -0.31599,-0.28965 -0.70668,-0.4861 -1.04645,-0.74747 -2.14715,-1.65165 0.41548,0.2682 -1.79392,-1.79391 -1.03713,-0.96799 -1.80513,-1.28729 -2.98986,-2.0929 -2.02145,-1.37459 -3.96078,-2.91052 -5.83022,-4.48479 -2.09706,-1.76595 -4.12027,-3.67826 -5.97971,-5.68073 -0.64781,-0.69763 -1.44717,-1.24386 -2.09291,-1.94341 -0.29075,-0.31499 -0.46849,-0.72098 -0.74747,-1.04645 -0.66539,-0.7763 -1.39527,-1.49493 -2.09289,-2.2424 -0.3366,-0.36063 -0.69764,-0.69763 -1.04646,-1.04645 -0.44847,-0.39864 -0.93503,-0.75818 -1.34543,-1.19594 -0.34082,-0.36353 -0.58018,-0.81129 -0.89696,-1.19594 -0.38145,-0.46319 -0.80943,-0.88646 -1.19594,-1.34544 -1.26168,-1.49823 -0.99584,-1.35528 -2.2424,-2.69087 -0.33659,-0.36063 -0.74168,-0.65856 -1.04645,-1.04645 -0.24821,-0.31591 -0.34078,-0.73782 -0.59797,-1.04645 -0.71335,-0.85604 -2.43355,-1.7637 -2.98986,-2.69087 -0.081,-0.13513 -0.079,-0.30754 -0.14949,-0.44848 -0.31503,-0.63006 -0.78144,-1.24124 -1.19594,-1.79391 -0.22653,-0.30205 -0.14985,-0.52412 -0.29899,-0.89696 -0.0785,-0.1963 -0.35393,-0.25939 -0.44848,-0.448481 -0.0446,-0.08914 0.0315,-0.204439 0,-0.298993 -0.0331,-0.09928 -0.3914,-0.505553 -0.44848,-0.448476 -0.0788,0.07883 -0.0827,0.209846 -0.14949,0.298984 -0.16913,0.225505 -0.42885,0.372462 -0.59798,0.597966 -1.51133,2.26701 0.12451,-0.0597 -1.04644,1.34545 -0.65934,0.7912 -1.1238,1.75958 -1.79392,2.54137 -1.562025,1.56203 0.16566,-0.29172 -0.89695,1.19595 -1.223071,1.71228 0.38359,-1.00244 -0.896968,1.04645 -0.853855,1.36616 0.330508,-0.19003 -0.747462,1.19594 -0.322116,0.41415 -0.873827,0.93129 -1.195943,1.34544 -0.463412,0.59582 -0.916337,1.31406 -1.345437,1.9434 -3.873292,5.68084 -0.415866,1.04715 -2.54138,3.43834 -0.392832,0.44194 -0.632823,1.0813 -1.046449,1.49493 -0.07879,0.0788 -0.220198,0.0707 -0.298988,0.14949 -0.127043,0.12705 -0.183966,0.31046 -0.298986,0.44848 -0.693572,0.8323 -1.571272,1.67385 -2.391887,2.39189 -0.187509,0.16407 -0.421792,0.2723 -0.597972,0.44848 -1.786182,1.78619 1.049791,-0.66738 -1.046449,1.19594 -0.23848,0.21198 -0.521846,0.37236 -0.747466,0.59798 -0.225619,0.22562 -0.360806,0.53402 -0.597972,0.74746 -1.559241,1.40331 -0.264023,-0.18446 -1.644421,1.19594 -0.275201,0.2752 -0.458182,0.6366 -0.747466,0.89696 -0.215972,0.19437 -0.530295,0.25544 -0.747464,0.44848 -0.23848,0.21198 -0.372353,0.52185 -0.597972,0.74747 -0.22562,0.22561 -0.507337,0.38786 -0.747465,0.59796 -1.005489,0.87981 -1.841729,1.9527 -2.840367,2.84037 -0.18622,0.16553 -0.421792,0.2723 -0.59797,0.44848 -0.726094,0.7261 -1.322499,1.54903 -2.092902,2.24239 -0.72776,0.65499 -1.551036,1.25205 -2.242395,1.94342 -0.641712,0.6417 -1.152203,1.45118 -1.793915,2.09289 -0.623648,0.62365 -1.349625,1.12591 -1.943408,1.79392 -0.560567,0.63064 -1.0961,1.3037 -1.644423,1.94341 -1.056945,1.2331 -1.881334,2.92779 -2.989858,4.03631 -0.17618,0.17618 -0.421794,0.2723 -0.597972,0.44847 -0.474818,0.47483 -0.824321,1.04827 -1.345436,1.49493 -0.189173,0.16216 -0.421794,0.2723 -0.597972,0.44849 -0.253853,0.25384 -1.69429,1.89365 -1.793916,2.09289 -0.495806,1.48743 0.211416,-0.28188 -0.448479,0.59798 -0.09454,0.12606 -0.0086,0.37801 -0.149492,0.44848 -0.315159,0.15758 -0.771306,-0.0706 -1.046451,0.14949 -0.348034,0.27843 -0.282813,0.88078 -0.597972,1.19594"
       id="path124-8" />
    <circle
       style="fill:#ff0000;stroke:#000000;stroke-width:0.2;stroke-dasharray:none;stroke-opacity:1;paint-order:fill markers stroke"
       id="path4342"
       cx="79.663559"
       cy="153.68169"
       r="5.1436315" />
    <circle
       style="fill:#ff0000;stroke:#000000;stroke-width:0.2;stroke-dasharray:none;stroke-opacity:1;paint-order:fill markers stroke"
       id="path4342-1"
       cx="129.97078"
       cy="184.1671"
       r="5.1436315" />
    <circle
       style="fill:#ff0000;stroke:#000000;stroke-width:0.2;stroke-dasharray:none;stroke-opacity:1;paint-order:fill markers stroke"
       id="path4342-24"
       cx="92.083549"
       cy="129.21806"
       r="5.1436315" />
    <circle
       style="fill:#ff0000;stroke:#000000;stroke-width:0.2;stroke-dasharray:none;stroke-opacity:1;paint-order:fill markers stroke"
       id="path4342-7"
       cx="137.24715"
       cy="153.30531"
       r="5.1436315" />
    <circle
       style="fill:#ff0000;stroke:#000000;stroke-width:0.2;stroke-dasharray:none;stroke-opacity:1;paint-order:fill markers stroke"
       id="path4342-3"
       cx="92.836281"
       cy="186.92711"
       r="5.1436315" />
    <circle
       style="fill:#ff0000;stroke:#000000;stroke-width:0.2;stroke-dasharray:none;stroke-opacity:1;paint-order:fill markers stroke"
       id="path4342-12"
       cx="115.41808"
       cy="209.25798"
       r="5.1436315" />
    <circle
       style="fill:#ff0000;stroke:#000000;stroke-width:0.2;stroke-dasharray:none;stroke-opacity:1;paint-order:fill markers stroke"
       id="path4342-8"
       cx="50.18177"
       cy="217.78888"
       r="5.1436315" />
    <circle
       style="fill:#ff0000;stroke:#000000;stroke-width:0.2;stroke-dasharray:none;stroke-opacity:1;paint-order:fill markers stroke"
       id="path4342-6"
       cx="124.4508"
       cy="132.22897"
       r="5.1436315" />
    <circle
       style="fill:#ff0000;stroke:#000000;stroke-width:0.2;stroke-dasharray:none;stroke-opacity:1;paint-order:fill markers stroke"
       id="path4342-2"
       cx="150.54532"
       cy="204.23981"
       r="5.1436315" />
    <circle
       style="fill:#ff0000;stroke:#000000;stroke-width:0.2;stroke-dasharray:none;stroke-opacity:1;paint-order:fill markers stroke"
       id="path4342-66"
       cx="67.243576"
       cy="194.45436"
       r="5.1436315" />
    <circle
       style="fill:#ff0000;stroke:#000000;stroke-width:0.2;stroke-dasharray:none;stroke-opacity:1;paint-order:fill markers stroke"
       id="path4342-5"
       cx="87.8181"
       cy="212.51979"
       r="5.1436315" />
    <circle
       style="fill:#ff0000;stroke:#000000;stroke-width:0.2;stroke-dasharray:none;stroke-opacity:1;paint-order:fill markers stroke"
       id="path4342-64"
       cx="104.87991"
       cy="163.59258"
       r="5.1436315" />
    <path
       sodipodi:type="star"
       style="fill:#ffcc00;stroke:#000000;stroke-width:0.2;stroke-dasharray:none;stroke-opacity:1;paint-order:fill markers stroke"
       id="path12774"
       inkscape:flatsided="false"
       sodipodi:sides="6"
       sodipodi:cx="42.654507"
       sodipodi:cy="81.54538"
       sodipodi:r1="18.818165"
       sodipodi:r2="9.4090824"
       sodipodi:arg1="0.92729522"
       sodipodi:arg2="1.450894"
       inkscape:rounded="0.19"
       inkscape:randomized="0"
       d="m 53.945406,96.599912 c -1.772443,1.329331 -7.965784,-5.978018 -10.16543,-5.713004 -2.199646,0.265014 -6.480171,8.834257 -8.517627,7.963943 -2.037456,-0.870314 1.194223,-9.88758 -0.135108,-11.660022 -1.329332,-1.772442 -10.890777,-1.194864 -11.155791,-3.39451 -0.265014,-2.199646 9.160007,-3.909562 10.030321,-5.947018 0.870314,-2.037456 -4.410605,-10.029122 -2.638163,-11.358453 1.772442,-1.329332 7.965783,5.978017 10.165429,5.713003 2.199646,-0.265013 6.480171,-8.834257 8.517627,-7.963943 2.037456,0.870315 -1.194223,9.88758 0.135109,11.660022 1.329331,1.772443 10.890776,1.194864 11.15579,3.39451 0.265014,2.199646 -9.160007,3.909562 -10.030321,5.947018 -0.870314,2.037457 4.410606,10.029122 2.638164,11.358454 z"
       inkscape:transform-center-x="-1.7118017"
       inkscape:transform-center-y="0.10597072"
       transform="rotate(96.493125,64.367866,120.14421)" />
  </g>
</svg>
